<svg width="47" height="47" viewBox="0 0 47 47" fill="none" xmlns="http://www.w3.org/2000/svg">
<path d="M44.65 21.15H42.1355C41.611 17.0139 39.7265 13.1696 36.7785 10.2215C33.8304 7.27347 29.986 5.389 25.85 4.8645V2.35C25.85 1.72674 25.6024 1.12901 25.1617 0.688299C24.721 0.247588 24.1233 0 23.5 0C22.8767 0 22.279 0.247588 21.8383 0.688299C21.3976 1.12901 21.15 1.72674 21.15 2.35V4.8645C17.0139 5.389 13.1696 7.27347 10.2215 10.2215C7.27347 13.1696 5.389 17.0139 4.8645 21.15H2.35C1.72674 21.15 1.12901 21.3976 0.688299 21.8383C0.247588 22.279 0 22.8767 0 23.5C0 24.1233 0.247588 24.721 0.688299 25.1617C1.12901 25.6024 1.72674 25.85 2.35 25.85H4.8645C5.389 29.986 7.27347 33.8304 10.2215 36.7785C13.1696 39.7265 17.0139 41.611 21.15 42.1355V44.65C21.15 45.2733 21.3976 45.871 21.8383 46.3117C22.279 46.7524 22.8767 47 23.5 47C24.1233 47 24.721 46.7524 25.1617 46.3117C25.6024 45.871 25.85 45.2733 25.85 44.65V42.1355C29.986 41.611 33.8304 39.7265 36.7785 36.7785C39.7265 33.8304 41.611 29.986 42.1355 25.85H44.65C45.2733 25.85 45.871 25.6024 46.3117 25.1617C46.7524 24.721 47 24.1233 47 23.5C47 22.8767 46.7524 22.279 46.3117 21.8383C45.871 21.3976 45.2733 21.15 44.65 21.15ZM23.5 37.6C20.7113 37.6 17.9852 36.773 15.6665 35.2237C13.3477 33.6744 11.5405 31.4723 10.4733 28.8958C9.4061 26.3194 9.12688 23.4844 9.67093 20.7492C10.215 18.0141 11.5579 15.5017 13.5298 13.5298C15.5017 11.5579 18.0141 10.215 20.7492 9.67093C23.4844 9.12688 26.3194 9.4061 28.8958 10.4733C31.4723 11.5405 33.6744 13.3477 35.2237 15.6665C36.773 17.9852 37.6 20.7113 37.6 23.5C37.6 27.2396 36.1145 30.8259 33.4702 33.4702C30.8259 36.1145 27.2396 37.6 23.5 37.6ZM23.5 16.45C22.1056 16.45 20.7426 16.8635 19.5832 17.6381C18.4239 18.4128 17.5202 19.5139 16.9866 20.8021C16.4531 22.0903 16.3134 23.5078 16.5855 24.8754C16.8575 26.243 17.5289 27.4991 18.5149 28.4851C19.5009 29.4711 20.757 30.1425 22.1246 30.4145C23.4922 30.6866 24.9097 30.5469 26.1979 30.0134C27.4861 29.4798 28.5872 28.5761 29.3619 27.4168C30.1365 26.2574 30.55 24.8944 30.55 23.5C30.55 21.6302 29.8072 19.837 28.4851 18.5149C27.163 17.1928 25.3698 16.45 23.5 16.45ZM23.5 25.85C23.0352 25.85 22.5809 25.7122 22.1944 25.454C21.808 25.1957 21.5067 24.8287 21.3289 24.3993C21.151 23.9699 21.1045 23.4974 21.1952 23.0415C21.2858 22.5857 21.5096 22.167 21.8383 21.8383C22.167 21.5096 22.5857 21.2858 23.0415 21.1952C23.4974 21.1045 23.9699 21.151 24.3993 21.3289C24.8287 21.5067 25.1957 21.808 25.454 22.1944C25.7122 22.5809 25.85 23.0352 25.85 23.5C25.85 24.1233 25.6024 24.721 25.1617 25.1617C24.721 25.6024 24.1233 25.85 23.5 25.85Z" fill="white"/>
</svg>
