<svg width="44" height="32" viewBox="0 0 44 32" fill="none" xmlns="http://www.w3.org/2000/svg">
<path d="M42.9921 0.926034C42.701 0.632605 42.3548 0.399704 41.9732 0.240766C41.5917 0.0818283 41.1825 0 40.7692 0C40.3559 0 39.9467 0.0818283 39.5652 0.240766C39.1837 0.399704 38.8374 0.632605 38.5463 0.926034L15.2218 24.2805L5.42233 14.4503C5.12014 14.1584 4.76341 13.9289 4.37251 13.7749C3.98161 13.6208 3.5642 13.5453 3.1441 13.5526C2.72401 13.5598 2.30946 13.6498 1.92412 13.8172C1.53879 13.9847 1.19021 14.2264 0.8983 14.5286C0.606388 14.8308 0.376856 15.1875 0.222807 15.5784C0.0687587 15.9692 -0.00678932 16.3866 0.000478759 16.8067C0.00774684 17.2268 0.0976883 17.6413 0.265166 18.0266C0.432644 18.4119 0.67438 18.7605 0.976571 19.0524L12.9989 31.074C13.2899 31.3674 13.6362 31.6003 14.0177 31.7592C14.3993 31.9182 14.8085 32 15.2218 32C15.6351 32 16.0443 31.9182 16.4258 31.7592C16.8073 31.6003 17.1536 31.3674 17.4447 31.074L42.9921 5.52806C43.3099 5.2349 43.5635 4.8791 43.737 4.48307C43.9104 4.08705 44 3.65939 44 3.22705C44 2.7947 43.9104 2.36704 43.737 1.97102C43.5635 1.57499 43.3099 1.21919 42.9921 0.926034V0.926034Z" fill="white"/>
</svg>
