<svg width="56" height="56" viewBox="0 0 56 56" fill="none" xmlns="http://www.w3.org/2000/svg">
<g filter="url(#filter0_d)">
<path d="M51.1899 19.7982L29.5844 0.597001C29.1463 0.21221 28.5831 0 28 0C27.4169 0 26.8537 0.21221 26.4156 0.597001L4.81005 19.7982C4.44284 20.123 4.18389 20.5524 4.06802 21.0287C3.95214 21.5049 3.9849 22.0053 4.16188 22.4624C4.33597 22.9135 4.64226 23.3015 5.04063 23.5755C5.43899 23.8496 5.91087 23.9971 6.39445 23.9985H8.79507V45.5998C8.79507 46.2364 9.04799 46.8469 9.4982 47.297C9.9484 47.7471 10.559 48 11.1957 48H44.8043C45.441 48 46.0516 47.7471 46.5018 47.297C46.952 46.8469 47.2049 46.2364 47.2049 45.5998V23.9985H49.6055C50.0891 23.9971 50.561 23.8496 50.9594 23.5755C51.3577 23.3015 51.664 22.9135 51.8381 22.4624C52.0151 22.0053 52.0479 21.5049 51.932 21.0287C51.8161 20.5524 51.5572 20.123 51.1899 19.7982ZM30.4006 43.1997H25.5994V35.9992C25.5994 35.3627 25.8523 34.7522 26.3025 34.3021C26.7527 33.852 27.3633 33.5991 28 33.5991C28.6367 33.5991 29.2473 33.852 29.6975 34.3021C30.1477 34.7522 30.4006 35.3627 30.4006 35.9992V43.1997ZM42.4037 43.1997H35.2018V35.9992C35.2018 34.0896 34.4431 32.2581 33.0925 30.9077C31.7419 29.5574 29.91 28.7988 28 28.7988C26.09 28.7988 24.2581 29.5574 22.9075 30.9077C21.5569 32.2581 20.7982 34.0896 20.7982 35.9992V43.1997H13.5963V23.9985H42.4037V43.1997ZM12.7081 19.1982L28 5.61332L43.2919 19.1982H12.7081Z" fill="white"/>
</g>
<defs>
<filter id="filter0_d" x="0" y="0" width="56" height="56" filterUnits="userSpaceOnUse" color-interpolation-filters="sRGB">
<feFlood flood-opacity="0" result="BackgroundImageFix"/>
<feColorMatrix in="SourceAlpha" type="matrix" values="0 0 0 0 0 0 0 0 0 0 0 0 0 0 0 0 0 0 127 0" result="hardAlpha"/>
<feOffset dy="4"/>
<feGaussianBlur stdDeviation="2"/>
<feComposite in2="hardAlpha" operator="out"/>
<feColorMatrix type="matrix" values="0 0 0 0 0 0 0 0 0 0 0 0 0 0 0 0 0 0 0.25 0"/>
<feBlend mode="normal" in2="BackgroundImageFix" result="effect1_dropShadow"/>
<feBlend mode="normal" in="SourceGraphic" in2="effect1_dropShadow" result="shape"/>
</filter>
</defs>
</svg>
