<svg width="49" height="53" viewBox="0 0 49 53" fill="none" xmlns="http://www.w3.org/2000/svg">
<rect x="44.7964" y="4" width="5" height="63.3517" rx="2.5" transform="rotate(45 44.7964 4)" fill="white"/>
<path fill-rule="evenodd" clip-rule="evenodd" d="M25.2162 25.0473C24.523 25.0392 23.8439 25.2437 23.2704 25.6332C22.6968 26.0227 22.2564 26.5786 22.0084 27.226C21.7603 27.8734 21.7166 28.5812 21.883 29.2542C22.0494 29.9273 22.418 30.5331 22.9392 30.9903V34.1554C22.9392 34.7593 23.1791 35.3385 23.6061 35.7655C24.0331 36.1925 24.6123 36.4324 25.2162 36.4324C25.8201 36.4324 26.3993 36.1925 26.8263 35.7655C27.2533 35.3385 27.4932 34.7593 27.4932 34.1554V30.9903C28.0144 30.5331 28.383 29.9273 28.5494 29.2542C28.7159 28.5812 28.6721 27.8734 28.4241 27.226C28.176 26.5786 27.7356 26.0227 27.1621 25.6332C26.5885 25.2437 25.9095 25.0392 25.2162 25.0473ZM36.6014 15.9392V11.3851C36.6014 8.36561 35.4019 5.46976 33.2667 3.33463C31.1316 1.1995 28.2357 0 25.2162 0C22.1967 0 19.3008 1.1995 17.1657 3.33463C15.0306 5.46976 13.8311 8.36561 13.8311 11.3851V15.9392C12.0194 15.9392 10.2819 16.6589 9.00078 17.94C7.7197 19.221 7 20.9586 7 22.7703V38.7095C7 40.5212 7.7197 42.2587 9.00078 43.5398C9.44922 43.9882 9.95359 44.3679 10.4975 44.6719L14.183 40.9865H13.8311C13.2272 40.9865 12.648 40.7466 12.221 40.3196C11.794 39.8925 11.5541 39.3134 11.5541 38.7095V22.7703C11.5541 22.1664 11.794 21.5872 12.221 21.1602C12.648 20.7331 13.2272 20.4932 13.8311 20.4932H33.7704L38.1472 16.1164C37.6444 15.9995 37.126 15.9392 36.6014 15.9392ZM21.254 40.9865L16.7 45.5405H36.6014C38.4131 45.5405 40.1506 44.8208 41.4317 43.5398C42.7127 42.2587 43.4324 40.5212 43.4324 38.7095V22.7703C43.4324 21.4285 43.0377 20.1274 42.3124 19.0223L38.8592 22.4755C38.8719 22.5727 38.8784 22.6711 38.8784 22.7703V38.7095C38.8784 39.3134 38.6385 39.8925 38.2115 40.3196C37.7844 40.7466 37.2053 40.9865 36.6014 40.9865H21.254ZM18.3851 11.3851C18.3851 9.57342 19.1048 7.83591 20.3859 6.55483C21.667 5.27376 23.4045 4.55405 25.2162 4.55405C27.0279 4.55405 28.7654 5.27376 30.0465 6.55483C31.3276 7.83591 32.0473 9.57342 32.0473 11.3851V15.9392H18.3851V11.3851Z" fill="white"/>
</svg>
