<svg width="42" height="51" viewBox="0 0 42 51" fill="none" xmlns="http://www.w3.org/2000/svg">
<path fill-rule="evenodd" clip-rule="evenodd" d="M17.0634 0.853921C17.5481 0.466817 18.1826 0.321299 18.7876 0.458499L40.0036 5.27009C40.9329 5.48083 41.5924 6.30675 41.5924 7.25957V44.1484C41.5924 45.1013 40.9329 45.9272 40.0036 46.1379L18.7876 50.9495C18.1826 51.0867 17.5481 50.9412 17.0634 50.5541C16.5787 50.167 16.2964 49.5804 16.2964 48.96V2.44798C16.2964 1.82765 16.5787 1.24102 17.0634 0.853921ZM20.3764 5.00244V46.4056L37.5124 42.5193V8.88873L20.3764 5.00244Z" fill="white"/>
<path fill-rule="evenodd" clip-rule="evenodd" d="M0.791992 7.34397C0.791992 6.21731 1.70533 5.30397 2.83199 5.30397H12.624V9.38397H4.872V42.024H12.624V46.104H2.83199C1.70533 46.104 0.791992 45.1907 0.791992 44.064V7.34397Z" fill="white"/>
<path d="M29.7604 24.4801C29.7604 25.8321 28.6644 26.9281 27.3124 26.9281C25.9604 26.9281 24.8644 25.8321 24.8644 24.4801C24.8644 23.1281 25.9604 22.0321 27.3124 22.0321C28.6644 22.0321 29.7604 23.1281 29.7604 24.4801Z" fill="white"/>
</svg>
