<svg width="39" height="39" viewBox="0 0 39 39" fill="none" xmlns="http://www.w3.org/2000/svg">
<path d="M34.9245 26.3445H26.091C25.5738 26.3445 25.0778 26.5499 24.7121 26.9156C24.3464 27.2813 24.141 27.7773 24.141 28.2945C24.141 28.8117 24.3464 29.3077 24.7121 29.6734C25.0778 30.0391 25.5738 30.2445 26.091 30.2445H30.771C28.62 32.4923 25.8461 34.0457 22.8056 34.7049C19.7651 35.3642 16.5969 35.0992 13.7081 33.9441C10.8193 32.789 8.34184 30.7965 6.5941 28.2227C4.84636 25.6488 3.90814 22.6112 3.9 19.5C3.9 18.9828 3.69455 18.4868 3.32886 18.1211C2.96316 17.7554 2.46717 17.55 1.95 17.55C1.43283 17.55 0.936838 17.7554 0.571142 18.1211C0.205446 18.4868 0 18.9828 0 19.5C0.010309 23.308 1.13533 27.0296 3.23623 30.2056C5.33712 33.3815 8.32195 35.8729 11.8223 37.3722C15.3227 38.8715 19.1855 39.3131 22.934 38.6425C26.6824 37.9718 30.1525 36.2184 32.916 33.5985V37.05C32.916 37.5672 33.1214 38.0632 33.4871 38.4289C33.8528 38.7946 34.3488 39 34.866 39C35.3832 39 35.8792 38.7946 36.2449 38.4289C36.6106 38.0632 36.816 37.5672 36.816 37.05V28.275C36.8112 27.7712 36.6116 27.2888 36.2589 26.9289C35.9063 26.569 35.4281 26.3596 34.9245 26.3445ZM25.35 19.5C25.35 18.343 25.0069 17.2119 24.3641 16.2499C23.7213 15.2879 22.8076 14.5381 21.7387 14.0953C20.6698 13.6525 19.4935 13.5367 18.3587 13.7624C17.2239 13.9881 16.1816 14.5453 15.3634 15.3634C14.5453 16.1816 13.9881 17.2239 13.7624 18.3587C13.5367 19.4935 13.6525 20.6698 14.0953 21.7387C14.5381 22.8076 15.2879 23.7213 16.2499 24.3641C17.2119 25.0069 18.343 25.35 19.5 25.35C21.0515 25.35 22.5395 24.7337 23.6366 23.6366C24.7337 22.5395 25.35 21.0515 25.35 19.5ZM17.55 19.5C17.55 19.1143 17.6644 18.7373 17.8786 18.4166C18.0929 18.096 18.3975 17.846 18.7538 17.6984C19.1101 17.5508 19.5022 17.5122 19.8804 17.5875C20.2587 17.6627 20.6061 17.8484 20.8789 18.1211C21.1516 18.3939 21.3373 18.7413 21.4125 19.1196C21.4878 19.4978 21.4492 19.8899 21.3016 20.2462C21.154 20.6025 20.904 20.9071 20.5834 21.1214C20.2627 21.3356 19.8857 21.45 19.5 21.45C18.9828 21.45 18.4868 21.2446 18.1211 20.8789C17.7554 20.5132 17.55 20.0172 17.55 19.5ZM19.5 0C14.501 0.0142588 9.69831 1.94788 6.084 5.4015V1.95C6.084 1.43283 5.87855 0.936838 5.51286 0.571142C5.14716 0.205446 4.65117 0 4.134 0C3.61683 0 3.12084 0.205446 2.75514 0.571142C2.38945 0.936838 2.184 1.43283 2.184 1.95V10.725C2.184 11.2422 2.38945 11.7382 2.75514 12.1039C3.12084 12.4696 3.61683 12.675 4.134 12.675H12.909C13.4262 12.675 13.9222 12.4696 14.2879 12.1039C14.6536 11.7382 14.859 11.2422 14.859 10.725C14.859 10.2078 14.6536 9.71184 14.2879 9.34614C13.9222 8.98045 13.4262 8.775 12.909 8.775H8.229C10.3788 6.52835 13.151 4.97542 16.1897 4.31556C19.2284 3.6557 22.3949 3.919 25.2829 5.07168C28.1709 6.22436 30.6485 8.21381 32.3978 10.7847C34.147 13.3555 35.088 16.3905 35.1 19.5C35.1 20.0172 35.3054 20.5132 35.6711 20.8789C36.0368 21.2446 36.5328 21.45 37.05 21.45C37.5672 21.45 38.0632 21.2446 38.4289 20.8789C38.7946 20.5132 39 20.0172 39 19.5C39 16.9392 38.4956 14.4035 37.5157 12.0377C36.5357 9.67182 35.0993 7.52216 33.2886 5.71142C31.4778 3.90068 29.3282 2.46432 26.9623 1.48435C24.5965 0.504383 22.0608 0 19.5 0V0Z" fill="white"/>
</svg>
