<svg width="46" height="51" viewBox="0 0 46 51" fill="none" xmlns="http://www.w3.org/2000/svg">
<path d="M43.4444 15.3427L28.1112 1.9457C26.7056 0.692713 24.8859 0 23.0001 0C21.1143 0 19.2946 0.692713 17.889 1.9457L2.55578 15.3427C1.74406 16.0662 1.09631 16.9538 0.655666 17.9463C0.215019 18.9388 -0.00841426 20.0135 0.00024225 21.0988V43.3591C0.00024225 45.3856 0.807972 47.3291 2.24574 48.762C3.68351 50.195 5.63354 51 7.66685 51H38.3333C40.3666 51 42.3167 50.195 43.7544 48.762C45.1922 47.3291 45.9999 45.3856 45.9999 43.3591V21.0733C46.0049 19.9923 45.7798 18.9225 45.3392 17.9347C44.8987 16.9468 44.2529 16.0633 43.4444 15.3427V15.3427ZM28.1112 45.9061H17.889V33.1713C17.889 32.4958 18.1582 31.848 18.6375 31.3704C19.1168 30.8927 19.7668 30.6244 20.4445 30.6244H25.5556C26.2334 30.6244 26.8834 30.8927 27.3627 31.3704C27.8419 31.848 28.1112 32.4958 28.1112 33.1713V45.9061ZM40.8888 43.3591C40.8888 44.0346 40.6196 44.6825 40.1403 45.1601C39.6611 45.6378 39.0111 45.9061 38.3333 45.9061H33.2222V33.1713C33.2222 31.1449 32.4145 29.2014 30.9767 27.7684C29.539 26.3355 27.5889 25.5305 25.5556 25.5305H20.4445C18.4112 25.5305 16.4612 26.3355 15.0234 27.7684C13.5857 29.2014 12.7779 31.1449 12.7779 33.1713V45.9061H7.66685C6.98908 45.9061 6.33907 45.6378 5.85982 45.1601C5.38056 44.6825 5.11132 44.0346 5.11132 43.3591V21.0733C5.11178 20.7117 5.1895 20.3543 5.33932 20.0249C5.48913 19.6956 5.7076 19.4018 5.9802 19.1631L21.3134 5.7916C21.7798 5.38327 22.3793 5.15808 23.0001 5.15808C23.6208 5.15808 24.2204 5.38327 24.6867 5.7916L40.02 19.1631C40.2926 19.4018 40.511 19.6956 40.6608 20.0249C40.8107 20.3543 40.8884 20.7117 40.8888 21.0733V43.3591Z" fill="white"/>
</svg>
