<svg width="48" height="47" viewBox="0 0 48 47" fill="none" xmlns="http://www.w3.org/2000/svg">
<path d="M28.6113 13.9536H30.9369C31.5537 13.9536 32.1453 13.7086 32.5814 13.2725C33.0175 12.8363 33.2625 12.2448 33.2625 11.628C33.2625 11.0112 33.0175 10.4197 32.5814 9.98357C32.1453 9.54743 31.5537 9.30241 30.9369 9.30241H28.6113C27.9945 9.30241 27.403 9.54743 26.9669 9.98357C26.5308 10.4197 26.2857 11.0112 26.2857 11.628C26.2857 12.2448 26.5308 12.8363 26.9669 13.2725C27.403 13.7086 27.9945 13.9536 28.6113 13.9536V13.9536ZM28.6113 23.256H30.9369C31.5537 23.256 32.1453 23.011 32.5814 22.5749C33.0175 22.1387 33.2625 21.5472 33.2625 20.9304C33.2625 20.3136 33.0175 19.7221 32.5814 19.286C32.1453 18.8498 31.5537 18.6048 30.9369 18.6048H28.6113C27.9945 18.6048 27.403 18.8498 26.9669 19.286C26.5308 19.7221 26.2857 20.3136 26.2857 20.9304C26.2857 21.5472 26.5308 22.1387 26.9669 22.5749C27.403 23.011 27.9945 23.256 28.6113 23.256V23.256ZM16.9833 13.9536H19.3089C19.9257 13.9536 20.5172 13.7086 20.9534 13.2725C21.3895 12.8363 21.6345 12.2448 21.6345 11.628C21.6345 11.0112 21.3895 10.4197 20.9534 9.98357C20.5172 9.54743 19.9257 9.30241 19.3089 9.30241H16.9833C16.3665 9.30241 15.775 9.54743 15.3389 9.98357C14.9027 10.4197 14.6577 11.0112 14.6577 11.628C14.6577 12.2448 14.9027 12.8363 15.3389 13.2725C15.775 13.7086 16.3665 13.9536 16.9833 13.9536V13.9536ZM16.9833 23.256H19.3089C19.9257 23.256 20.5172 23.011 20.9534 22.5749C21.3895 22.1387 21.6345 21.5472 21.6345 20.9304C21.6345 20.3136 21.3895 19.7221 20.9534 19.286C20.5172 18.8498 19.9257 18.6048 19.3089 18.6048H16.9833C16.3665 18.6048 15.775 18.8498 15.3389 19.286C14.9027 19.7221 14.6577 20.3136 14.6577 20.9304C14.6577 21.5472 14.9027 22.1387 15.3389 22.5749C15.775 23.011 16.3665 23.256 16.9833 23.256V23.256ZM44.8906 41.8609H42.565V2.3256C42.565 1.70881 42.3199 1.11729 41.8838 0.681153C41.4477 0.245018 40.8561 0 40.2394 0H7.68091C7.06412 0 6.4726 0.245018 6.03646 0.681153C5.60033 1.11729 5.35531 1.70881 5.35531 2.3256V41.8609H3.0297C2.41292 41.8609 1.82139 42.1059 1.38525 42.542C0.94912 42.9781 0.704102 43.5697 0.704102 44.1865C0.704102 44.8032 0.94912 45.3948 1.38525 45.8309C1.82139 46.267 2.41292 46.5121 3.0297 46.5121H44.8906C45.5073 46.5121 46.0989 46.267 46.535 45.8309C46.9711 45.3948 47.2162 44.8032 47.2162 44.1865C47.2162 43.5697 46.9711 42.9781 46.535 42.542C46.0989 42.1059 45.5073 41.8609 44.8906 41.8609ZM26.2857 41.8609H21.6345V32.5584H26.2857V41.8609ZM37.9137 41.8609H30.9369V30.2328C30.9369 29.6161 30.6919 29.0245 30.2558 28.5884C29.8197 28.1523 29.2281 27.9072 28.6113 27.9072H19.3089C18.6921 27.9072 18.1006 28.1523 17.6645 28.5884C17.2283 29.0245 16.9833 29.6161 16.9833 30.2328V41.8609H10.0065V4.65121H37.9137V41.8609Z" fill="white"/>
</svg>
