<svg width="60" height="48" viewBox="0 0 60 48" fill="none" xmlns="http://www.w3.org/2000/svg">
<path d="M31.2809 0.246902C30.7939 0.0358949 30.2596 -0.0419213 29.7327 0.0213944C29.2059 0.0847101 28.7052 0.28689 28.2818 0.607299L13.946 11.9598H2.99913C2.20371 11.9598 1.44087 12.2763 0.878425 12.8395C0.315979 13.4027 0 14.1666 0 14.9631V32.983C0 33.7796 0.315979 34.5435 0.878425 35.1067C1.44087 35.6699 2.20371 35.9864 2.99913 35.9864H13.946L28.1318 47.3389C28.6595 47.7628 29.3148 47.9957 29.9913 47.9996C30.4393 48.007 30.8822 47.9039 31.2809 47.6993C31.7913 47.4559 32.2226 47.073 32.525 46.5947C32.8275 46.1165 32.9888 45.5624 32.9904 44.9963V2.94989C32.9888 2.3838 32.8275 1.8297 32.525 1.35146C32.2226 0.873217 31.7913 0.490316 31.2809 0.246902V0.246902ZM26.9922 38.7494L16.8551 30.6405C16.3274 30.2165 15.6721 29.9837 14.9957 29.9797H5.99826V17.9665H14.9957C15.6721 17.9625 16.3274 17.7297 16.8551 17.3057L26.9922 9.19678V38.7494ZM53.7144 23.9731L59.1129 18.5972C59.3925 18.3171 59.6143 17.9847 59.7657 17.6188C59.917 17.253 59.9949 16.8608 59.9949 16.4648C59.9949 16.0688 59.917 15.6767 59.7657 15.3108C59.6143 14.9449 59.3925 14.6125 59.1129 14.3325C58.8332 14.0524 58.5013 13.8303 58.1359 13.6788C57.7705 13.5272 57.3789 13.4492 56.9835 13.4492C56.588 13.4492 56.1964 13.5272 55.8311 13.6788C55.4657 13.8303 55.1337 14.0524 54.8541 14.3325L49.4857 19.7384L44.1172 14.3325C43.5525 13.7669 42.7865 13.4492 41.9878 13.4492C41.1892 13.4492 40.4232 13.7669 39.8584 14.3325C39.2937 14.898 38.9764 15.665 38.9764 16.4648C38.9764 17.2646 39.2937 18.0316 39.8584 18.5972L45.2569 23.9731L39.8584 29.349C39.5773 29.6282 39.3542 29.9604 39.202 30.3264C39.0497 30.6924 38.9713 31.0849 38.9713 31.4814C38.9713 31.8779 39.0497 32.2704 39.202 32.6364C39.3542 33.0024 39.5773 33.3345 39.8584 33.6137C40.1373 33.8952 40.469 34.1187 40.8344 34.2711C41.1999 34.4236 41.5919 34.5021 41.9878 34.5021C42.3837 34.5021 42.7758 34.4236 43.1412 34.2711C43.5067 34.1187 43.8384 33.8952 44.1172 33.6137L49.4857 28.2078L54.8541 33.6137C55.1329 33.8952 55.4646 34.1187 55.8301 34.2711C56.1956 34.4236 56.5876 34.5021 56.9835 34.5021C57.3794 34.5021 57.7714 34.4236 58.1369 34.2711C58.5023 34.1187 58.8341 33.8952 59.1129 33.6137C59.394 33.3345 59.6171 33.0024 59.7693 32.6364C59.9216 32.2704 60 31.8779 60 31.4814C60 31.0849 59.9216 30.6924 59.7693 30.3264C59.6171 29.9604 59.394 29.6282 59.1129 29.349L53.7144 23.9731Z" fill="white"/>
</svg>
