<svg width="49" height="48" viewBox="0 0 49 48" fill="none" xmlns="http://www.w3.org/2000/svg">
<path d="M18.9957 29.3524L18.6086 29.0488L18.1441 28.7957L17.6796 28.6692C17.265 28.5878 16.8364 28.6076 16.4314 28.7267C16.0264 28.8458 15.6574 29.0607 15.357 29.3524C15.1017 29.5816 14.9069 29.8681 14.7893 30.1874C14.6527 30.4902 14.5822 30.8177 14.5822 31.1488C14.5822 31.48 14.6527 31.8074 14.7893 32.1103C15.0666 32.7183 15.5627 33.2047 16.1828 33.4766C16.4931 33.6063 16.8262 33.675 17.1635 33.679C17.5088 33.6727 17.85 33.6041 18.1699 33.4766C18.4845 33.3544 18.7668 33.1642 18.9957 32.92C19.2371 32.6891 19.43 32.414 19.5635 32.1103C19.6869 31.8044 19.7483 31.4778 19.7441 31.1488C19.7529 30.8169 19.6822 30.4876 19.5377 30.1874C19.4195 29.8745 19.2347 29.5899 18.9957 29.3524V29.3524ZM2.55691 15.7905C2.89835 15.7891 3.23611 15.7213 3.55063 15.591C3.86515 15.4607 4.15017 15.2705 4.38918 15.0314L15.3312 4.30335C15.8119 3.82929 16.0816 3.188 16.0816 2.51956C16.0816 1.85112 15.8119 1.20983 15.3312 0.735765C14.8477 0.264512 14.1936 0 13.5118 0C12.8301 0 12.176 0.264512 11.6925 0.735765L0.750439 11.4638C0.269787 11.9379 0 12.5792 0 13.2476C0 13.9161 0.269787 14.5574 0.750439 15.0314C1.22691 15.5082 1.8762 15.781 2.55691 15.7905V15.7905ZM48.1831 32.9453C47.6996 32.474 47.0455 32.2095 46.3637 32.2095C45.6819 32.2095 45.0279 32.474 44.5443 32.9453L33.6023 43.6734C33.2399 44.0257 32.9923 44.4756 32.8906 44.9659C32.789 45.4563 32.8379 45.9653 33.0313 46.4284C33.2247 46.8915 33.5537 47.288 33.9769 47.5677C34.4001 47.8475 34.8984 47.9979 35.4088 48C35.7502 47.9986 36.088 47.9308 36.4025 47.8005C36.717 47.6702 37.0021 47.48 37.2411 47.2409L48.1831 36.6394C48.4409 36.4027 48.6465 36.1167 48.787 35.7989C48.9275 35.4812 49 35.1386 49 34.7923C49 34.446 48.9275 34.1034 48.787 33.7857C48.6465 33.468 48.4409 33.182 48.1831 32.9453V32.9453ZM48.6218 18.6243C48.6268 16.6155 47.8195 14.6866 46.3766 13.2603L35.4088 2.50691C33.9319 1.13299 31.9737 0.36706 29.9378 0.36706C27.9019 0.36706 25.9436 1.13299 24.4668 2.50691L2.55691 23.9884C1.10708 25.4116 0.292732 27.3409 0.292732 29.3524C0.292732 31.3639 1.10708 33.2932 2.55691 34.7164L13.5247 45.4698C14.9764 46.8913 16.9441 47.6897 18.9957 47.6897C21.0474 47.6897 23.0151 46.8913 24.4668 45.4698L46.3766 23.9884C47.8195 22.5621 48.6268 20.6332 48.6218 18.6243V18.6243ZM42.7121 20.4208L20.828 41.8769C20.5881 42.1141 20.3027 42.3023 19.9882 42.4307C19.6737 42.5592 19.3364 42.6253 18.9957 42.6253C18.6551 42.6253 18.3178 42.5592 18.0033 42.4307C17.6888 42.3023 17.4034 42.1141 17.1635 41.8769L6.22145 31.1488C5.97957 30.9136 5.78758 30.6338 5.65657 30.3254C5.52555 30.0171 5.45809 29.6864 5.45809 29.3524C5.45809 29.0184 5.52555 28.6877 5.65657 28.3793C5.78758 28.071 5.97957 27.7912 6.22145 27.5559L28.1055 6.0998C28.3454 5.86265 28.6308 5.67442 28.9453 5.54596C29.2598 5.41751 29.5971 5.35137 29.9378 5.35137C30.2785 5.35137 30.6158 5.41751 30.9302 5.54596C31.2447 5.67442 31.5301 5.86265 31.77 6.0998L42.7121 16.8279C42.954 17.0631 43.1459 17.3429 43.277 17.6513C43.408 17.9596 43.4754 18.2903 43.4754 18.6243C43.4754 18.9583 43.408 19.289 43.277 19.5974C43.1459 19.9057 42.954 20.1855 42.7121 20.4208Z" fill="white"/>
</svg>
