<svg width="47" height="43" viewBox="0 0 47 43" fill="none" xmlns="http://www.w3.org/2000/svg">
<path d="M11.2954 23.7561C11.0085 23.8599 10.748 24.0256 10.5323 24.2413C10.3166 24.457 10.1509 24.7175 10.0471 25.0044C9.87896 25.4245 9.8378 25.8847 9.92872 26.3279C10.0197 26.7712 10.2387 27.178 10.5586 27.498C10.8786 27.8179 11.2854 28.0369 11.7287 28.1279C12.1719 28.2188 12.6321 28.1776 13.0522 28.0095C13.3323 27.8924 13.5904 27.7282 13.815 27.524C14.0192 27.2993 14.1834 27.0413 14.3005 26.7612C14.4299 26.4869 14.4932 26.186 14.4854 25.8828C14.4769 25.2708 14.2375 24.6845 13.815 24.2415C13.49 23.9208 13.0772 23.7035 12.6288 23.6171C12.1803 23.5307 11.7164 23.5791 11.2954 23.7561ZM41.67 14.5096L38.5262 5.19384C38.0467 3.83745 37.1571 2.66378 35.9809 1.83543C34.8046 1.00708 33.3999 0.565062 31.9612 0.570608H15.5025C14.0639 0.565062 12.6591 1.00708 11.4829 1.83543C10.3066 2.66378 9.41708 3.83745 8.93753 5.19384L5.79374 14.579C4.31506 14.9662 3.00574 15.8311 2.06933 17.0392C1.13293 18.2474 0.62191 19.731 0.615723 21.2596V30.506C0.619744 31.9368 1.06621 33.3313 1.8939 34.4983C2.7216 35.6654 3.89001 36.5479 5.23895 37.0248V39.7525C5.23895 40.3656 5.4825 40.9535 5.91601 41.387C6.34952 41.8205 6.93749 42.0641 7.55057 42.0641C8.16364 42.0641 8.75161 41.8205 9.18512 41.387C9.61864 40.9535 9.86218 40.3656 9.86218 39.7525V37.4409H37.6016V39.7525C37.6016 40.3656 37.8451 40.9535 38.2786 41.387C38.7121 41.8205 39.3001 42.0641 39.9132 42.0641C40.5262 42.0641 41.1142 41.8205 41.5477 41.387C41.9812 40.9535 42.2248 40.3656 42.2248 39.7525V37.0248C43.5737 36.5479 44.7421 35.6654 45.5698 34.4983C46.3975 33.3313 46.844 31.9368 46.848 30.506V21.2596C46.8418 19.731 46.3308 18.2474 45.3944 17.0392C44.458 15.8311 43.1487 14.9662 41.67 14.579V14.5096ZM13.3065 6.65015C13.4616 6.19102 13.757 5.79223 14.1511 5.51016C14.5452 5.22809 15.0179 5.07701 15.5025 5.07826H31.9612C32.4653 5.05195 32.9641 5.19136 33.3816 5.47519C33.799 5.75903 34.112 6.17169 34.2728 6.65015L36.7 14.3247H10.7637L13.3065 6.65015ZM42.2248 30.506C42.2248 31.1191 41.9812 31.7071 41.5477 32.1406C41.1142 32.5741 40.5262 32.8176 39.9132 32.8176H7.55057C6.93749 32.8176 6.34952 32.5741 5.91601 32.1406C5.4825 31.7071 5.23895 31.1191 5.23895 30.506V21.2596C5.23895 20.6465 5.4825 20.0585 5.91601 19.625C6.34952 19.1915 6.93749 18.9479 7.55057 18.9479H39.9132C40.5262 18.9479 41.1142 19.1915 41.5477 19.625C41.9812 20.0585 42.2248 20.6465 42.2248 21.2596V30.506ZM34.4115 23.7561C34.1247 23.8599 33.8641 24.0256 33.6484 24.2413C33.4327 24.457 33.2671 24.7175 33.1633 25.0044C32.9951 25.4245 32.9539 25.8847 33.0449 26.3279C33.1358 26.7712 33.3548 27.178 33.6748 27.498C33.9947 27.8179 34.4016 28.0369 34.8448 28.1279C35.2881 28.2188 35.7483 28.1776 36.1684 28.0095C36.4552 27.9057 36.7157 27.74 36.9315 27.5243C37.1472 27.3086 37.3128 27.0481 37.4166 26.7612C37.546 26.4869 37.6094 26.186 37.6016 25.8828C37.593 25.2708 37.3536 24.6845 36.9312 24.2415C36.6061 23.9208 36.1933 23.7035 35.7449 23.6171C35.2965 23.5307 34.8325 23.5791 34.4115 23.7561V23.7561ZM26.0435 23.5712H21.4203C20.8072 23.5712 20.2192 23.8147 19.7857 24.2482C19.3522 24.6817 19.1086 25.2697 19.1086 25.8828C19.1086 26.4959 19.3522 27.0838 19.7857 27.5173C20.2192 27.9509 20.8072 28.1944 21.4203 28.1944H26.0435C26.6566 28.1944 27.2445 27.9509 27.678 27.5173C28.1116 27.0838 28.3551 26.4959 28.3551 25.8828C28.3551 25.2697 28.1116 24.6817 27.678 24.2482C27.2445 23.8147 26.6566 23.5712 26.0435 23.5712Z" fill="white"/>
</svg>
