<svg width="45" height="47" viewBox="0 0 45 47" fill="none" xmlns="http://www.w3.org/2000/svg">
<path d="M43.4288 18.9881C42.7965 18.1953 42.0053 17.5571 41.111 17.1186C40.2168 16.68 39.2413 16.4518 38.2533 16.4501H27.9924L29.2525 13.0896C29.7767 11.6182 29.9512 10.036 29.7612 8.4787C29.5712 6.9214 29.0223 5.43547 28.1616 4.14838C27.3009 2.8613 26.1541 1.81147 24.8195 1.08896C23.485 0.366445 22.0025 -0.00718964 20.4993 0.000104789C20.0664 0.00104799 19.643 0.132351 19.2798 0.378272C18.9166 0.624194 18.6291 0.974295 18.4516 1.3866L12.0385 16.4501H6.75059C4.96022 16.4501 3.24318 17.1928 1.9772 18.515C0.711221 19.8371 0 21.6303 0 23.5001V39.95C0 41.8198 0.711221 43.613 1.9772 44.9351C3.24318 46.2572 4.96022 47 6.75059 47H35.3956C36.9748 46.9995 38.5038 46.4207 39.7167 45.3645C40.9295 44.3082 41.7494 42.8413 42.0337 41.219L44.8914 24.7691C45.0682 23.7524 45.0288 22.7076 44.776 21.7086C44.5233 20.7096 44.0633 19.7808 43.4288 18.9881ZM11.251 42.3H6.75059C6.1538 42.3 5.58145 42.0524 5.15946 41.6117C4.73747 41.171 4.50039 40.5733 4.50039 39.95V23.5001C4.50039 22.8768 4.73747 22.2791 5.15946 21.8384C5.58145 21.3976 6.1538 21.1501 6.75059 21.1501H11.251V42.3ZM40.5035 23.9231L37.6458 40.373C37.5499 40.9205 37.2711 41.4146 36.8591 41.7675C36.447 42.1204 35.9284 42.3091 35.3956 42.3H15.7514V19.2936L21.8719 4.91159C22.5019 5.10341 23.087 5.42955 23.5903 5.86941C24.0935 6.30928 24.504 6.85332 24.7958 7.4672C25.0876 8.08108 25.2544 8.75146 25.2856 9.43604C25.3168 10.1206 25.2118 10.8045 24.9772 11.4446L23.7846 14.8051C23.5304 15.5154 23.4447 16.2793 23.5345 17.0318C23.6244 17.7842 23.8872 18.5027 24.3006 19.1261C24.714 19.7495 25.2657 20.2591 25.9085 20.6115C26.5514 20.964 27.2664 21.1487 27.9924 21.1501H38.2533C38.5839 21.1495 38.9105 21.225 39.21 21.3712C39.5095 21.5175 39.7744 21.7308 39.986 21.9961C40.2027 22.2577 40.3615 22.566 40.451 22.8991C40.5405 23.2322 40.5584 23.5819 40.5035 23.9231Z" fill="white"/>
</svg>
