<svg width="49" height="49" viewBox="0 0 49 49" fill="none" xmlns="http://www.w3.org/2000/svg">
<path d="M47.2954 18.4824L42.6687 16.9402L44.8474 12.5827C45.0683 12.1266 45.1422 11.6132 45.0588 11.1134C44.9755 10.6135 44.7391 10.1518 44.3823 9.79202L39.1681 4.57777C38.8063 4.21568 38.3402 3.97607 37.8352 3.89264C37.3303 3.80921 36.8118 3.88615 36.3529 4.11265L31.9954 6.29138L30.4532 1.66465C30.2903 1.18237 29.9811 0.762869 29.5687 0.464512C29.1563 0.166155 28.6611 0.00378871 28.152 8.1605e-06H20.808C20.2948 -0.00131661 19.7942 0.158685 19.3769 0.457398C18.9595 0.756111 18.6467 1.17843 18.4824 1.66465L16.9402 6.29138L12.5827 4.11265C12.1266 3.89179 11.6132 3.81792 11.1134 3.90123C10.6135 3.98454 10.1518 4.22093 9.79202 4.57777L4.57777 9.79202C4.21568 10.1537 3.97607 10.6199 3.89264 11.1248C3.80921 11.6298 3.88615 12.1482 4.11265 12.6072L6.29138 16.9647L1.66465 18.5069C1.18237 18.6698 0.762869 18.979 0.464512 19.3914C0.166155 19.8038 0.00378871 20.299 8.1605e-06 20.808V28.152C-0.00131661 28.6653 0.158685 29.1659 0.457398 29.5832C0.756111 30.0005 1.17843 30.3134 1.66465 30.4776L6.29138 32.0199L4.11265 36.3773C3.89179 36.8334 3.81792 37.3468 3.90123 37.8467C3.98454 38.3466 4.22093 38.8082 4.57777 39.1681L9.79202 44.3823C10.1537 44.7444 10.6199 44.984 11.1248 45.0674C11.6298 45.1509 12.1482 45.0739 12.6072 44.8474L16.9647 42.6687L18.5069 47.2954C18.6711 47.7817 18.984 48.204 19.4013 48.5027C19.8187 48.8014 20.3193 48.9614 20.8325 48.9601H28.1765C28.6897 48.9614 29.1904 48.8014 29.6077 48.5027C30.025 48.204 30.3379 47.7817 30.5021 47.2954L32.0444 42.6687L36.4018 44.8474C36.855 45.0627 37.3634 45.1336 37.8582 45.0504C38.3529 44.9672 38.8102 44.734 39.1681 44.3823L44.3823 39.1681C44.7444 38.8063 44.984 38.3402 45.0674 37.8352C45.1509 37.3303 45.0739 36.8118 44.8474 36.3529L42.6687 31.9954L47.2954 30.4532C47.7777 30.2903 48.1972 29.9811 48.4956 29.5687C48.7939 29.1563 48.9563 28.6611 48.9601 28.152V20.808C48.9614 20.2948 48.8014 19.7942 48.5027 19.3769C48.204 18.9595 47.7817 18.6467 47.2954 18.4824ZM44.0641 26.3895L41.1265 27.3687C40.4509 27.5878 39.8312 27.9512 39.3102 28.4338C38.7892 28.9164 38.3794 29.5065 38.1092 30.1633C37.839 30.82 37.715 31.5277 37.7457 32.2372C37.7763 32.9467 37.961 33.641 38.2868 34.272L39.6821 37.0628L36.9893 39.7556L34.272 38.2868C33.6443 37.974 32.9566 37.7998 32.2557 37.7759C31.5547 37.752 30.8568 37.8789 30.2091 38.1482C29.5615 38.4175 28.9793 38.8227 28.5019 39.3366C28.0245 39.8504 27.6631 40.4608 27.4421 41.1265L26.4629 44.0641H22.5706L21.5914 41.1265C21.3723 40.4509 21.0088 39.8312 20.5263 39.3102C20.0437 38.7892 19.4536 38.3794 18.7968 38.1092C18.14 37.839 17.4324 37.715 16.7229 37.7457C16.0134 37.7763 15.319 37.961 14.688 38.2868L11.8973 39.6821L9.2045 36.9893L10.6733 34.272C10.9991 33.641 11.1838 32.9467 11.2144 32.2372C11.2451 31.5277 11.121 30.82 10.8509 30.1633C10.5807 29.5065 10.1709 28.9164 9.6499 28.4338C9.12889 27.9512 8.50913 27.5878 7.83362 27.3687L4.89601 26.3895V22.5706L7.83362 21.5914C8.50913 21.3723 9.12889 21.0088 9.6499 20.5263C10.1709 20.0437 10.5807 19.4536 10.8509 18.7968C11.121 18.14 11.2451 17.4324 11.2144 16.7229C11.1838 16.0134 10.9991 15.319 10.6733 14.688L9.27794 11.9707L11.9707 9.27794L14.688 10.6733C15.319 10.9991 16.0134 11.1838 16.7229 11.2144C17.4324 11.2451 18.14 11.121 18.7968 10.8509C19.4536 10.5807 20.0437 10.1709 20.5263 9.6499C21.0088 9.12889 21.3723 8.50913 21.5914 7.83362L22.5706 4.89601H26.3895L27.3687 7.83362C27.5878 8.50913 27.9512 9.12889 28.4338 9.6499C28.9164 10.1709 29.5065 10.5807 30.1633 10.8509C30.82 11.121 31.5277 11.2451 32.2372 11.2144C32.9467 11.1838 33.641 10.9991 34.272 10.6733L37.0628 9.27794L39.7556 11.9707L38.2868 14.688C37.974 15.3158 37.7998 16.0035 37.7759 16.7044C37.752 17.4054 37.8789 18.1033 38.1482 18.7509C38.4175 19.3986 38.8227 19.9808 39.3366 20.4582C39.8504 20.9356 40.4608 21.297 41.1265 21.518L44.0641 22.4972V26.3895ZM24.48 14.688C22.5434 14.688 20.6502 15.2623 19.0399 16.3383C17.4296 17.4142 16.1745 18.9435 15.4334 20.7328C14.6923 22.5221 14.4983 24.4909 14.8762 26.3904C15.254 28.2898 16.1866 30.0346 17.556 31.404C18.9255 32.7735 20.6702 33.7061 22.5697 34.0839C24.4692 34.4617 26.438 34.2678 28.2273 33.5267C30.0165 32.7855 31.5458 31.5305 32.6218 29.9202C33.6978 28.3099 34.272 26.4167 34.272 24.48C34.272 21.883 33.2404 19.3924 31.404 17.556C29.5677 15.7197 27.077 14.688 24.48 14.688V14.688ZM24.48 29.376C23.5117 29.376 22.5651 29.0889 21.76 28.5509C20.9548 28.0129 20.3273 27.2483 19.9567 26.3537C19.5862 25.459 19.4892 24.4746 19.6781 23.5249C19.867 22.5751 20.3333 21.7028 21.018 21.018C21.7028 20.3333 22.5751 19.867 23.5249 19.6781C24.4746 19.4892 25.459 19.5862 26.3537 19.9567C27.2483 20.3273 28.0129 20.9548 28.5509 21.76C29.0889 22.5651 29.376 23.5117 29.376 24.48C29.376 25.7785 28.8602 27.0239 27.942 27.942C27.0239 28.8602 25.7785 29.376 24.48 29.376Z" fill="white"/>
</svg>
