<svg width="48" height="48" viewBox="0 0 48 48" fill="none" xmlns="http://www.w3.org/2000/svg">
<path d="M44.49 15.4737C44.2103 15.1937 43.8782 14.9716 43.5127 14.82C43.1473 14.6685 42.7556 14.5905 42.36 14.5905C41.9644 14.5905 41.5727 14.6685 41.2073 14.82C40.8418 14.9716 40.5097 15.1937 40.23 15.4737C39.9503 15.7537 39.7284 16.0862 39.577 16.452C39.4256 16.8179 39.3477 17.2101 39.3477 17.6061C39.3477 18.0021 39.4256 18.3942 39.577 18.7601C39.7284 19.126 39.9503 19.4584 40.23 19.7384C41.3568 20.8597 41.9933 22.3826 42 23.9731C42.0007 24.8481 41.8105 25.7127 41.4425 26.5064C41.0746 27.3001 40.5379 28.0038 39.87 28.5682C39.5662 28.8203 39.3151 29.1299 39.1311 29.4794C38.947 29.8288 38.8336 30.2111 38.7974 30.6045C38.7612 30.9979 38.8028 31.3945 38.9199 31.7718C39.0371 32.149 39.2274 32.4994 39.48 32.8028C39.734 33.1048 40.0449 33.3536 40.395 33.5352C40.7451 33.7167 41.1275 33.8274 41.5204 33.8609C41.9132 33.8943 42.3088 33.8499 42.6846 33.7302C43.0603 33.6105 43.4087 33.4179 43.71 33.1632C45.0513 32.0373 46.1304 30.6313 46.8715 29.0437C47.6126 27.4561 47.9977 25.7255 48 23.9731C47.9831 20.7899 46.7233 17.7396 44.49 15.4737V15.4737ZM31.29 0.246902C30.8028 0.0358949 30.2684 -0.0419213 29.7414 0.0213944C29.2143 0.0847101 28.7135 0.28689 28.29 0.607299L13.95 11.9598H3C2.20435 11.9598 1.44129 12.2763 0.87868 12.8395C0.316071 13.4027 0 14.1666 0 14.9631V32.983C0 33.7796 0.316071 34.5435 0.87868 35.1067C1.44129 35.6699 2.20435 35.9864 3 35.9864H13.95L28.14 47.3389C28.6678 47.7628 29.3233 47.9957 30 47.9996C30.4481 48.007 30.8911 47.9039 31.29 47.6993C31.8005 47.4559 32.2319 47.073 32.5345 46.5947C32.837 46.1165 32.9984 45.5624 33 44.9963V2.94989C32.9984 2.3838 32.837 1.8297 32.5345 1.35146C32.2319 0.873217 31.8005 0.490316 31.29 0.246902V0.246902ZM27 38.7494L16.86 30.6405C16.3322 30.2165 15.6767 29.9837 15 29.9797H6V17.9665H15C15.6767 17.9625 16.3322 17.7297 16.86 17.3057L27 9.19678V38.7494Z" fill="white"/>
</svg>
