<svg width="50" height="50" viewBox="0 0 50 50" fill="none" xmlns="http://www.w3.org/2000/svg">
<path d="M47.5 22.5036C46.837 22.5036 46.2011 22.767 45.7322 23.2359C45.2634 23.7047 45 24.3406 45 25.0036C45.0298 29.6862 43.4257 34.2326 40.4641 37.8597C37.5026 41.4869 33.3688 43.9678 28.7749 44.8751C24.181 45.7825 19.4145 45.0594 15.2963 42.8306C11.1781 40.6017 7.96602 37.0065 6.21331 32.6642C4.46061 28.322 4.27698 23.5044 5.69405 19.0413C7.11112 14.5782 10.0402 10.749 13.9768 8.2131C17.9133 5.67721 22.611 4.59344 27.2607 5.14843C31.9103 5.70343 36.2209 7.86245 39.45 11.2536H33.45C32.787 11.2536 32.1511 11.517 31.6822 11.9859C31.2134 12.4547 30.95 13.0906 30.95 13.7536C30.95 14.4167 31.2134 15.0526 31.6822 15.5214C32.1511 15.9902 32.787 16.2536 33.45 16.2536H44.775C45.438 16.2536 46.0739 15.9902 46.5428 15.5214C47.0116 15.0526 47.275 14.4167 47.275 13.7536V2.50366C47.275 1.84062 47.0116 1.20473 46.5428 0.735893C46.0739 0.267053 45.438 0.00366136 44.775 0.00366136C44.112 0.00366136 43.4761 0.267053 43.0072 0.735893C42.5384 1.20473 42.275 1.84062 42.275 2.50366V6.92865C38.1117 2.9488 32.7019 0.528542 26.96 0.0769839C21.2182 -0.374574 15.4966 1.17027 10.7623 4.45038C6.02803 7.73049 2.57153 12.5447 0.977078 18.0791C-0.617373 23.6136 -0.251967 29.5288 2.01153 34.8249C4.27502 40.1211 8.29776 44.4732 13.3997 47.1457C18.5017 49.8182 24.37 50.6471 30.0126 49.4923C35.6552 48.3375 40.726 45.2698 44.3678 40.8078C48.0097 36.3458 49.9992 30.7632 50 25.0036C50 24.3406 49.7366 23.7047 49.2678 23.2359C48.7989 22.767 48.163 22.5036 47.5 22.5036Z" fill="white"/>
</svg>
