<svg width="51" height="45" viewBox="0 0 51 45" fill="none" xmlns="http://www.w3.org/2000/svg">
<path d="M28.8124 23.0824C30.1729 21.8598 31.2641 20.3476 32.012 18.6486C32.76 16.9495 33.147 15.1033 33.147 13.2353C33.147 9.72508 31.8038 6.35863 29.413 3.87653C27.0221 1.39443 23.7794 0 20.3982 0C17.017 0 13.7742 1.39443 11.3834 3.87653C8.99249 6.35863 7.64931 9.72508 7.64931 13.2353C7.64929 15.1033 8.03637 16.9495 8.78428 18.6486C9.53219 20.3476 10.6234 21.8598 11.9839 23.0824C8.4146 24.7603 5.3863 27.4699 3.26111 30.8873C1.13591 34.3047 0.00375289 38.2852 0 42.3529C0 43.055 0.268636 43.7283 0.74681 44.2247C1.22498 44.7211 1.87353 45 2.54977 45C3.22601 45 3.87456 44.7211 4.35273 44.2247C4.8309 43.7283 5.09954 43.055 5.09954 42.3529C5.09954 38.1407 6.71136 34.1009 9.5804 31.1224C12.4495 28.1439 16.3407 26.4706 20.3982 26.4706C24.4556 26.4706 28.3469 28.1439 31.2159 31.1224C34.085 34.1009 35.6968 38.1407 35.6968 42.3529C35.6968 43.055 35.9654 43.7283 36.4436 44.2247C36.9218 44.7211 37.5703 45 38.2466 45C38.9228 45 39.5713 44.7211 40.0495 44.2247C40.5277 43.7283 40.7963 43.055 40.7963 42.3529C40.7926 38.2852 39.6604 34.3047 37.5352 30.8873C35.41 27.4699 32.3817 24.7603 28.8124 23.0824V23.0824ZM20.3982 21.1765C18.8853 21.1765 17.4064 20.7107 16.1484 19.8381C14.8905 18.9656 13.9101 17.7253 13.3311 16.2743C12.7522 14.8232 12.6007 13.2265 12.8958 11.686C13.191 10.1456 13.9195 8.73063 14.9893 7.62003C16.0591 6.50944 17.422 5.75312 18.9059 5.44671C20.3897 5.14029 21.9277 5.29756 23.3254 5.8986C24.7232 6.49965 25.9178 7.51749 26.7583 8.82341C27.5988 10.1293 28.0475 11.6647 28.0475 13.2353C28.0475 15.3414 27.2416 17.3613 25.807 18.8506C24.3725 20.3398 22.4269 21.1765 20.3982 21.1765ZM50.256 14.9029C50.0189 14.6548 49.7369 14.4579 49.4262 14.3235C49.1155 14.1891 48.7822 14.1199 48.4456 14.1199C48.109 14.1199 47.7758 14.1891 47.465 14.3235C47.1543 14.4579 46.8723 14.6548 46.6353 14.9029L41.5358 20.1971L39.9549 18.5294C39.7179 18.2813 39.4359 18.0844 39.1251 17.95C38.8144 17.8156 38.4812 17.7464 38.1446 17.7464C37.808 17.7464 37.4747 17.8156 37.164 17.95C36.8533 18.0844 36.5713 18.2813 36.3342 18.5294C35.8593 19.0254 35.5928 19.6963 35.5928 20.3956C35.5928 21.0949 35.8593 21.7658 36.3342 22.2618L39.7509 25.8088C40.2286 26.3018 40.8749 26.5786 41.5485 26.5786C42.2221 26.5786 42.8684 26.3018 43.3461 25.8088L50.154 18.7412C50.4114 18.5011 50.6191 18.2092 50.7644 17.8832C50.9096 17.5572 50.9895 17.2039 50.999 16.8448C51.0086 16.4857 50.9476 16.1284 50.8199 15.7945C50.6921 15.4607 50.5003 15.1573 50.256 14.9029V14.9029Z" fill="white"/>
</svg>
