<svg width="54" height="49" viewBox="0 0 54 49" fill="none" xmlns="http://www.w3.org/2000/svg">
<path d="M26.9389 34.35C26.4563 34.35 25.9845 34.4932 25.5832 34.7615C25.1819 35.0298 24.8692 35.4111 24.6845 35.8573C24.4998 36.3034 24.4514 36.7943 24.5456 37.268C24.6398 37.7416 24.8722 38.1766 25.2134 38.5181C25.5547 38.8596 25.9895 39.0921 26.4629 39.1863C26.9362 39.2805 27.4269 39.2322 27.8728 39.0474C28.3187 38.8626 28.6998 38.5496 28.9679 38.1481C29.236 37.7466 29.3792 37.2745 29.3792 36.7916C29.3792 36.1441 29.1221 35.523 28.6644 35.0651C28.2068 34.6073 27.5861 34.35 26.9389 34.35ZM52.9762 37.9392L33.3323 3.75673C32.6974 2.61775 31.7701 1.66905 30.6461 1.00863C29.5222 0.348199 28.2424 0 26.9389 0C25.6355 0 24.3557 0.348199 23.2318 1.00863C22.1078 1.66905 21.1805 2.61775 20.5455 3.75673L1.02372 37.9392C0.366801 39.0477 0.0138139 40.31 0.000397271 41.5987C-0.0130193 42.8874 0.313609 44.1568 0.947307 45.2788C1.581 46.4007 2.49934 47.3356 3.60959 47.9889C4.71984 48.6422 5.98271 48.9908 7.2707 48.9996H46.6072C47.9055 49.0124 49.1839 48.6795 50.3112 48.035C51.4386 47.3905 52.3743 46.4576 53.0225 45.3319C53.6707 44.2063 54.008 42.9284 53.9999 41.6293C53.9917 40.3302 53.6384 39.0566 52.9762 37.9392V37.9392ZM48.7546 42.8224C48.5407 43.2032 48.2286 43.5195 47.8509 43.7386C47.4732 43.9576 47.0437 44.0712 46.6072 44.0676H7.2707C6.83417 44.0712 6.40466 43.9576 6.02696 43.7386C5.64926 43.5195 5.3372 43.2032 5.1233 42.8224C4.90913 42.4512 4.79637 42.0302 4.79637 41.6016C4.79637 41.173 4.90913 40.7519 5.1233 40.3808L24.6451 6.19833C24.8499 5.79839 25.161 5.46276 25.5442 5.22839C25.9274 4.99402 26.3678 4.87 26.8169 4.87C27.266 4.87 27.7064 4.99402 28.0896 5.22839C28.4728 5.46276 28.784 5.79839 28.9887 6.19833L48.6326 40.3808C48.8747 40.7466 49.0138 41.171 49.0353 41.6092C49.0567 42.0475 48.9598 42.4834 48.7546 42.8712V42.8224ZM26.9389 14.8172C26.2918 14.8172 25.6711 15.0744 25.2134 15.5323C24.7558 15.9902 24.4987 16.6112 24.4987 17.2588V27.0252C24.4987 27.6728 24.7558 28.2938 25.2134 28.7517C25.6711 29.2096 26.2918 29.4668 26.9389 29.4668C27.5861 29.4668 28.2068 29.2096 28.6644 28.7517C29.1221 28.2938 29.3792 27.6728 29.3792 27.0252V17.2588C29.3792 16.6112 29.1221 15.9902 28.6644 15.5323C28.2068 15.0744 27.5861 14.8172 26.9389 14.8172Z" fill="#FFB800"/>
</svg>
